<?xml version="1.0" encoding="utf-8"?>
<!-- Generator: Adobe Illustrator 19.1.0, SVG Export Plug-In . SVG Version: 6.00 Build 0)  -->
<svg version="1.1" id="Source_code_1_" xmlns="http://www.w3.org/2000/svg" xmlns:xlink="http://www.w3.org/1999/xlink" x="0px"
	 y="0px" viewBox="600 -600 1440 1440" style="enable-background:new 600 -600 1440 1440;" xml:space="preserve">
<style type="text/css">
	.st0{fill:url(#SVGID_1_);stroke:#000000;stroke-width:2;}
	.st1{fill:#787878;}
	.st2{fill:#FFFFFF;}
	.st3{fill:#DEDEDE;}
</style>
<radialGradient id="SVGID_1_" cx="1320" cy="121.5" r="688" gradientTransform="matrix(1 0 0 -1 0 241.5)" gradientUnits="userSpaceOnUse">
	<stop  offset="0" style="stop-color:#484848"/>
	<stop  offset="0.888" style="stop-color:#000000"/>
</radialGradient>
<path class="st0" d="M600-600V840h1440V-600H600z"/>
<path class="st1" d="M981.2-141.4v-15.9l53.6-34.2v21l-34.4,20.8v0.5l34.4,20.8v21L981.2-141.4z"/>
<path class="st1" d="M1096-201h19.4l-45.1,118.9h-19.4L1096-201z"/>
<path class="st2" d="M1134.3-123.4c0-15.3,12-23.2,43.2-24.9c-0.8-4.9-5.5-7.1-13.1-7.1c-5.7,0-11.5,1.9-19.7,5.7l-8.2-15.3
	c10.4-5.7,21-9,32.5-9c19.4,0,32,9.6,32,32v38h-19.1l-1.6-7.1h-0.5c-6.7,4.9-14.8,8.7-23.2,8.7
	C1142.2-102.4,1134.3-112.2,1134.3-123.4z M1177.4-125.6v-8.7c-16.7,0.5-20.8,4.4-20.8,9c0,3.1,2.5,4.9,7.4,4.9
	C1169.5-120.4,1173.8-122.9,1177.4-125.6z"/>
<path class="st2" d="M1217.6-172.3h19.3l1.8,14.5h0.5c6.6-11.2,16.4-16.1,26.7-16.1c6.3,0,9.2,1.1,13,2.7l-4.6,19.7
	c-4.1-1.2-7-1.9-11.9-1.9c-7.8,0-16.1,4.1-21.2,15.6v33.9h-23.5V-172.3z"/>
<path class="st2" d="M1310.3-133v-21h-16.4v-17.5l17.5-0.8l3-20.5h19.4v20.5h27.1v18.3h-27.1v20.6c0,9.7,4.5,12.7,13.3,12.7
	c4.6,0,8.7-1,12.4-2.2l4.1,16.9c-6,1.6-13.4,3.6-22.7,3.6C1318.5-102.4,1310.3-114.7,1310.3-133z"/>
<path class="st1" d="M1385.7-128.3l34.4-20.8v-0.5l-34.4-20.8v-21l53.6,34.2v15.9l-53.6,34.2V-128.3z"/>
<path class="st1" d="M981.2,23.6V7.8l53.6-34.2v21l-34.4,20.8V16l34.4,20.8v21L981.2,23.6z"/>
<path class="st1" d="M1096-36h19.4l-45.1,118.9h-19.4L1096-36z"/>
<path class="st2" d="M1127.1-7.3h22.7l2.7,28.7c0.7,6.8,1.1,13.7,1.9,20.8h0.4c0.7-7.1,1.5-14.2,2.9-20.8l2.7-17.8h15.9l3,17.8
	c1.2,6.8,2.2,13.7,3.1,20.8h0.5c0.8-7.1,1-13.9,1.5-20.8l2.2-28.7h21.9l-9,68.3h-27.1l-2.2-18.3c-0.8-6.3-1.5-12.7-2.2-20.2h-0.5
	c-0.4,4.6-0.8,10.3-1.9,20.2l-2.2,18.3H1137L1127.1-7.3z"/>
<path class="st2" d="M1214.6,26.9c0-22.7,17.2-35.8,35.3-35.8s35.3,13.1,35.3,35.8c0,22.7-17.2,35.8-35.3,35.8
	S1214.6,49.6,1214.6,26.9z M1261.1,26.9c0-10.4-3.3-16.9-11.2-16.9s-11.2,6.6-11.2,16.9c0,10.4,3.3,16.9,11.2,16.9
	S1261.1,37.3,1261.1,26.9z"/>
<path class="st2" d="M1305.1-7.3h19.3l1.8,14.5h0.5c6.6-11.2,16.4-16.1,26.7-16.1c6.3,0,9.2,1.1,13,2.7l-4.6,19.7
	c-4.1-1.2-7-1.9-11.9-1.9c-7.8,0-16.1,4.1-21.2,15.6v33.9h-23.5V-7.3z"/>
<path class="st2" d="M1381.6-34.1h23.5v51.1h0.5l20.8-24.3h25.4l-25.4,28.2l27.1,40.2h-25.4l-15-25.4l-7.9,8.7v16.7h-23.5V-34.1z"/>
<path class="st1" d="M1473.2,36.7l34.4-20.8v-0.5l-34.4-20.8v-21l53.6,34.2v15.9l-53.6,34.2V36.7z"/>
<path class="st1" d="M981.2,188.7v-15.9l53.6-34.2v21l-34.4,20.8v0.5l34.4,20.8v21L981.2,188.7z"/>
<path class="st2" d="M1053.9,217.4l9.8-14.5c8.6,5.1,18,7.7,26.8,7.7c6,0,8.5-1.6,8.5-4.1c0-3.3-3.6-3.8-15-6.3
	c-18.9-4.1-25.7-11.2-25.7-21.9c0-13.4,12.7-22.1,32.5-22.1c12.8,0,23.1,5.1,30.3,9.6l-10.4,13.9c-7.1-4.1-15-6.3-22.1-6.3
	c-4.4,0-7.1,1.4-7.1,3.8c0,3,3.6,3.3,14.2,5.7c20.5,4.6,26.5,10.8,26.5,22.1c0,12.8-12.2,22.7-35,22.7
	C1075.5,227.8,1062.6,223.1,1053.9,217.4z"/>
<path class="st2" d="M1151.8,197.2v-21h-16.4v-17.5l17.5-0.8l3-20.5h19.4v20.5h27.1v18.3h-27.1v20.6c0,9.7,4.5,12.7,13.3,12.7
	c4.6,0,8.7-1,12.4-2.2l4.1,16.9c-6,1.6-13.4,3.6-22.7,3.6C1159.9,227.8,1151.8,215.5,1151.8,197.2z"/>
<path class="st2" d="M1220.8,250.5l4.1-17.8c1.8,0.5,3.4,0.8,4.9,0.8c7.2,0,10.9-2.7,12.7-6.8l1.1-3l-28.7-65.9h23.2l9.6,26.2
	c2.3,6.6,4.2,13.4,6.2,20.8h0.5c1.6-7,3.8-13.9,5.9-20.8l8.2-26.2h22.1l-25.7,67.2c-7.2,18.5-15.3,26.8-33.2,26.8
	C1227.5,251.8,1223.9,251.3,1220.8,250.5z"/>
<path class="st2" d="M1319.6,198v-48.7H1301V131h42.1v67.8c0,7.9,5.5,10.1,10.3,10.1c2.9,0,5.9-0.5,9.8-1.9l5.1,17.2
	c-7.4,2.2-12.3,3.6-21.2,3.6C1328.9,227.8,1319.6,215.8,1319.6,198z"/>
<path class="st2" d="M1382.4,192c0-22.4,17.5-35.8,35.8-35.8c21.6,0,32.5,14.8,32.5,33.1c0,4.1-0.7,8.2-1,9.8h-43.9
	c2,7.7,8.1,10.9,18,10.9c5.5,0,10.4-1.4,16.4-4.1l7.7,13.9c-8.2,5.2-18.9,7.9-27.3,7.9C1399.1,227.8,1382.4,214.7,1382.4,192z
	 M1406.1,183.8h23.9c-1-6.4-4.5-9.8-10.9-9.8C1412.4,173.9,1408,177.1,1406.1,183.8z"/>
<path class="st1" d="M1470.5,201.8l34.4-20.8v-0.5l-34.4-20.8v-21l53.6,34.2v15.9l-53.6,34.2V201.8z"/>
<path class="st3" d="M1019.5,294.2h19.4l-45.1,118.9h-19.4L1019.5,294.2z"/>
<path class="st3" d="M1054.9,373l12.7-20.9l-20.5-9.2l3.6-11.2l21.9,5.3l1.9-23.8h12l1.9,23.8l21.9-5.3l3.6,11.2l-20.5,9.2L1106,373
	l-10,6.8l-15.6-18.6l-15.6,18.6L1054.9,373z"/>
<path class="st3" d="M1138.1,357c0-22.7,18.9-35.8,40-35.8c10.7,0,20.1,3.6,25.8,9l-10.7,14.5c-5.1-3.4-9.4-4.6-13.8-4.6
	c-10.2,0-17.4,6.6-17.4,16.9c0,10.4,7,16.9,16.5,16.9c6.7,0,12.2-2.9,16.8-5.7l9.3,14.8c-8.5,7-19.4,9.8-28.4,9.8
	C1154.8,392.9,1138.1,379.7,1138.1,357z"/>
<path class="st3" d="M1217.3,357c0-22.7,17.2-35.8,35.3-35.8s35.3,13.1,35.3,35.8c0,22.7-17.2,35.8-35.3,35.8
	S1217.3,379.7,1217.3,357z M1263.8,357c0-10.4-3.3-16.9-11.2-16.9c-7.9,0-11.2,6.6-11.2,16.9c0,10.4,3.3,16.9,11.2,16.9
	C1260.5,374,1263.8,367.4,1263.8,357z"/>
<path class="st3" d="M1299.3,357c0-22.4,14.2-35.8,28.6-35.8c7.2,0,11.9,2.5,16,6.8h0.5l-1.1-9.8v-22.1h23.5v95.1h-19.1l-1.6-6.3
	h-0.5c-4.8,4.6-11.5,7.9-17.6,7.9C1310.6,392.9,1299.3,379.2,1299.3,357z M1343.4,368.8v-25.1c-2.7-2.5-5.7-3.3-9-3.3
	c-5.7,0-10.9,4.4-10.9,16.4c0,12.3,4,16.9,10.7,16.9C1337.9,373.7,1340.8,372.6,1343.4,368.8z"/>
<path class="st3" d="M1382.4,357c0-22.4,17.5-35.8,35.8-35.8c21.6,0,32.5,14.8,32.5,33.1c0,4.1-0.7,8.2-1,9.8h-43.9
	c2,7.7,8.1,10.9,18,10.9c5.5,0,10.4-1.4,16.4-4.1l7.7,13.9c-8.2,5.2-18.9,7.9-27.3,7.9C1399.1,392.9,1382.4,379.7,1382.4,357z
	 M1406.1,348.8h23.9c-1-6.4-4.5-9.8-10.9-9.8C1412.4,339,1408,342.1,1406.1,348.8z"/>
<path class="st3" d="M1481.3,373l12.7-20.9l-20.5-9.2l3.6-11.2l21.9,5.3l1.9-23.8h12l1.9,23.8l21.9-5.3l3.6,11.2l-20.5,9.2
	l12.7,20.9l-10,6.8l-15.6-18.6l-15.6,18.6L1481.3,373z"/>
<path class="st3" d="M1582.5,294.2h19.4l-45.1,118.9h-19.4L1582.5,294.2z"/>
</svg>
