<?xml version="1.0" encoding="utf-8"?>
<svg version="1.1" xmlns="http://www.w3.org/2000/svg" xmlns:xlink="http://www.w3.org/1999/xlink" viewBox="0 0 1440 1440" xml:space="preserve" style="background: black"><!-- x="0px" y="0px" width="1440px" height="1440px" enable-background="new 0 0 1440 1440" -->


<linearGradient id="light" gradientUnits="userSpaceOnUse" x1="707.209" y1="674.9595" x2="729.694" y2="891.9228">
	<stop  offset="0" style="stop-color:#ffb7aa"/>
	<stop  offset="1" style="stop-color:#ff5d6e"/>
</linearGradient>
<polygon fill="url(#light)" points="334.7,709 1105.6,636 1105.6,890.5 334.7,963.5 "/>

<linearGradient id="dark" gradientUnits="userSpaceOnUse" x1="682.5713" y1="176.835" x2="729.4558" y2="636.6077">
	<stop  offset="0" style="stop-color:#00161e"/>
	<stop  offset="1" style="stop-color:#00cfb8"/>
</linearGradient>
<polygon fill="url(#dark)" points="334.7,454.5 1105.6,381.5 1105.6,636 334.7,709 "/>

<!-- Drop Shadow -->
<use  xlink:href="#shadow" x="0" y="1.5" style="fill: black; stroke: black; stroke-width:2.0; opacity: 1.0;"/>

<g id="shadow">
	<radialGradient id="spotlight" cx="720" cy="720" r="688" gradientUnits="userSpaceOnUse">
		<stop  offset="0" style="stop-color:#484848"/>
		<stop  offset="0.888" style="stop-color:#000000"/>
	</radialGradient>
	
	<path fill="url(#spotlight)" d="M816.5 755.5c-7 8.5-11.5 19.5-14 29.5 25-27 19-33.5 14-29.5zM532.5 652c0-.5-34 9.5-26.5 21 8.5 12.5 25.5-14 26.5-21zM859 789c-6.5 4-11 6-12.5 12-2.5 9.5 7 11.5 12 2 2.5-5 2-9.5 1-14h-.5zM684.2 557.5c-5-.5-11.8.1-14.7 4.5-6.5 8.5-8 18.5-5.5 26 3.5-3 12.3-16.7 20.2-30.5zM394 632c-1 6.5-.5 12 1 16l-.4-.4c-.1.7-1.7 4.1-5.1 4.9-3.5 1-6-2.5-7-8.5-8.5 13.5-10.5 23.5 4 18 30-12 54-46.5 66.5-78.5-24.5 15.5-43.5 32.5-59 48.5zM929 830.5h-.5c1 6 6.5 11.5 8.5 6.5 2-5.5 2.5-17.5 4-35-7.5 10.5-13 20-12 28.5zM551.5 558c-22.5-13.5-38 96.5-11 38 2.5-11.5 6-24 11-38zM823 556c16.5-7.5 28-34.5 42.5-57.5-68.5 15.5-63.5 67.5-42.5 57.5zM947.5 764c2.5-11.5 6-24 11-38-22.5-13.5-38 96.5-11 38zM0 0v1440h1440v-1440h-1440zm636.5 499c1-3 27.5-10 23.5-2.5-6.5 12-13.5 24-20 37.5 12.5-2.5 16-4 16.5-4 4.5-.5 2.5 2.5-1 7.5-1.5 2.5-10.5 5-20 6.5-10.5 23.5-18.5 45-19.5 57.5 0 .5 12-21.5 38-41 1.5-6 4-11 6-12.5 11-8.5 23-4 28.5 1 3-9.5 8-25.5 15.5-28.5-4.5-.5-24.5 9-22 15.5 0 0-24 11-21.5-1 2.5-11.5 27.5-18 40-19 4.5 0 14.5-1.5 18 .5 2.5 2.5-14 34-17 43.5-1.5 5-2.5 10-3.5 14.5 7.5-8 19-25 25-33.5 7.5-28.5 20-59 22.5-64.5 1-3 11.5-4 19 0-9.5 19.5-37.5 80-32.5 100.5 0 .5 6.5-13 28-27 0-.5.5-.5.5-.5v2.5l-.5.5c-13 11-30 35-28.5 37l-.5 1c-3 3-6.5 3.5-9 2-6.5-4.5-6.5-18.5-3.5-35-8 13.5-18 30.5-21 34.5l-.5 1-.5.5c-2.5 1.5-11.5 8.5-14 5-1-1.5-.5-13.5 1.5-27.5-6.5 13.5-13 25.5-15.5 28.5-2.5 3.5-7 7.5-11 7-10-1.5-9.5-21.5-6-37.5-16.5 17.5-33.5 42-31.5 44.5-7.5 6-16 5-17.5-5-1.5-9.5 2.5-28 15-62-4 0-7 0-6.5-.5 3-6 .5-6.5 10-8 4-11.5 9.5-24 15.5-39zm-41.5 20c1-8.5 5.5-19.5 16-13.5 3.5 2 5.5 5.5 3.5 10-2 4-9 9.5-12.5 12.5-6.5 0-7.5-3.5-7-9zm14.5 19c0 1.5-2 5-6.5 10.5-9 17-23 50-15.5 65.5.5 0-6.5 7.5-10.5 8-13.5 2.5-7.5-62 11-84v.5c5.5-3 21.5-6.5 21.5-.5zm-108-2c.5-4 3.5-14.5 10-16 5.5-1 11 3.5 11 9h.5c0 1-.5 1.5-1.5 2.5-2 3.5-9.5 11-12.5 13.5-6.5 0-8.5-3.5-7.5-9zm-12 143.5c-6.5-14 16.5-31 44-40 .5-5.5 1-11.5 1.5-17.5 0-1 .5-2.5.5-4-19.5 21-28 11-28.5-7-7.5 10.5-14.5 21-19.5 25.5-17.5 16.5-15-38 .5-71.5-3.5 1.5-7 3-10 4.5-11 44.5-51.5 97.5-97.5 101-22.5 2-30-13.5 1-39 1-29 14-78.5 27-97 5.5-3.5 26-7.5 26-2v.5c-3 5.5-29 52.5-38.5 86.5 17.5-14 39.5-30 59-42.5 37.5-106-82-41.5-81.5-12.5-42-26 30.5-61 77.5-56 26.5 2.5 34.5 19 29.5 53 7.5-4 33.5-15 33.5-6.5 0 2-1.5 5.5-7 12.5-6.5 14-16 34-16 47v.5c0 1.5.5 2 1.5 2 3-.5 9-8.5 15.5-17.5 3.5-29 21.5-66.5 45.5-48.5 1-2 2-4 3-6.5 1-3 27-10 23.5-2.5-1 2.5-6 10-6 10-7 13-15 40-18.5 55.5-2 10-5.5 21-7 29.5 14-1.5 32-1.5 43.5 4.5 2.5 2 .5 4-1.5 3-12-4-29.5-2-43.5 1.5l-1.5 6c-10.5 36.5-45 51.5-56 27.5zm51.5 174c-6 10.5-13 22.5-15.5 26.5l-.5.5c-3.5 6.5-7 8.5-10.5 9-23.5 3.5-9.5-36.5-6.5-45 2-6.5-.5 0 2.5-8 .5-1 0-1-.5-1-3.5-.5-4.5 1.5-6 1.5s-1.5-2 2-4c7-4 23-4.5 24.5-2 .5 1 0 2-1.5 5-7 14.5-7 15.5-11.5 31-1 5-1 7.5-.5 9 4.5-3 17-20 25.5-31.5 2.5-15.5 7-30.5 12-35 6-5.5 23.5-7 20.5-3v-1c-5 8-24 50.5-14.5 68.5 6 12-26.5 17-19.5-20.5zm160.5 50c-20.5 16.5-84.5 7.5-105-44-21 27-42 47.5-47 41-2.5-3-.5-5.5-.5-5 13-6 28.5-27.5 42.5-51-9-19.5-13.5-61-25.5-65.5 1.5-6 32.5-7.5 30 3 0 1.5 6.5 31.5 8 40.5 11.5-22.5 31-64 32-67 2-6 17-6 20 0-3 14.5-29 63-46.5 87.5 21.5 56 67.5 62 91 54.5 5-1.5 5.5 2.5 1 6zm-7.5-45c-22.5 2-30-13.5 1-39 1-29 14-78.5 27-97 5.5-3.5 26-7.5 26-2v.5c-3 5-30.5 54-39 88 5.5-4 11.5-7.5 18.5-11.5 2 0 2 3 .5 4-7 3.5-14.5 10-21 17.5-1 6.5-.5 12.5 1 16.5-1.5 6.5-11 8.5-12-2.5-9 15.5-8 21-1.5 19 14.5-4 53.5-29 74.5-91.5 7-21 7-34.5 5-43.5-8-32-115 .5-77.5 47 0 0-27 16-25-13.5 3.5-46 83-65 108-50 43.5 26-14 152-85.5 158zm211.5-34.5c-71 14.5-140 29-151 36.5-2 1.5-6.5-1-5-3.5 7.5-7 86-28.5 163.5-47v.5c5.5-1.5-3 12.5-7.5 13.5zm134.5-24c-5.5-.5-31.5 3-72.5 11-5 1-3-11 2-12 44-9.5 72-15 73.5-12.5 2 2-.5 13.5-3 13.5zm12-60c-10-1-28.5 29-27 36.5 0 .5-14 10-17-3.5-2.5-10 .5-27.5 1.5-33.5-6.5 13.5-13.5 29.5-16.5 42 0 0-6 7-10 7.5-1 0-7.5-3-7.5-21.5 0-3 .5-7 1-11-4.5 7-9.5 13-14.5 19-7 32.5-10 63-19 68.5-8.5 6-22.5 10-26.5-1.5-4-17 7.5-31.5 25.5-52.5 0-1 .5-2.5.5-4-20 21-28.5 10.5-28.5-8-7.5 11.5-15 22.5-20 27-12 11.5-14.5-11.5-9.5-38-4.5 5.5-8.5 9.5-12.5 13 6 58.5-91.5 49-15 1.5-2-7.5-5-16-3-28-12 18-23.5 39.5-36.5 56-9.5 13-21.5 18-27 5-16-39.5 15.5-68.5 15.5-68.5 10.5-10 22-5 26-2.5 7 1.5 17.5 9-30.5 49-1.5 13 3 20 14.5 6 14.5-17.5 27.5-40 40-59 3.5-5.5 26.5-14 21.5-2.5-7.5 17.5-9 27-7.5 36 6-4 11-9 16-15.5 3-12.5 7.5-24.5 13.5-33.5 2-1 5.5-2 9-2.5 5.5-1 11-1 11 2.5 0 2-1.5 5.5-7 12.5-6.5 14-15.5 34-16 47v.5c0 1.5.5 2 1.5 2 3-.5 10-9.5 16.5-19 4-28.5 22-65 45.5-47.5 1-2 2-4 3-6.5 1-3 27-10 23.5-2.5-1 2.5-6 10-6 10-7 13-12 28-16 43.5 4.5-5.5 9.5-11.5 14-17.5 2.5-10.5 7.5-24.5 15.5-41 5.5-3 20-6 20 0 0 2-2 5.5-7.5 12.5-5 11.5-12 28-14.5 43 5-15.5 16.5-40 26-48l1-1c2.5-3.5 22-7 21.5-2.5 0 2-2 6.5-8.5 14.5-4.5 10.5-9.5 23.5-10.5 33.5 8-8.5 16-22 29.5-19 1 0 2.5 1.5 1 1.5zm-138.5-40c2-6.5 5-10 9-10 8.5.5 13 8 6 14.5l-9.5 9c-9 0-7.5-7.5-5.5-13.5zm177-279l-13 18c-1.5 2-27.5 8.5-53 13.5v.5c-3 .5-7 1.5-10.5 2l-2 4c-.5.5-3.5 7-7 15-10 22.5-17.5 43-18.5 55 0 .5 5.5-9 16.5-21 9-10 25.5-24 33.5-23.5l-.5 4.5c-3-.5-13.5 6-26 21.5-11 14.5-20 28-18.5 30-7.5 6-16 5-17.5-5-.5-2.5-.5-5.5 0-9.5-10 10.5-19.5 18-28 20.5-5 1.5-9.5 3.5-11-3-1-5.5 5.5-43.5 13.5-55.5l-4.5 1c-2 8-13 24.5-23 35-.5 27 6 50 23.5 57 14.5 6 22.5 2 28 0 7.5-2.5 9 0 3.5 3.5-7 4.5-22 9-31.5 8-58-5.5-48-105-25.5-155-9.5 12.5-21 31.5-33 51 6-.5 10-1 10-1 4 0 1 7.5-4 8-4 0-7.5.5-11 1-20 33-39.5 66.5-49 76.5-19 19.5-33-16.5-33-16.5-19.5-41.5 37-58.5 71.5-65 22-36 43-71.5 56-75.5 4-5.5 26-6 23-.5-13 21.5-26.5 65.5-28.5 103 9-10.5 18.5-24.5 17.5-27.5-8 1-12-2-1-12.5 7-6.5 8-7.5 9.5-7 8 2.5 32-8.5 27 1.5-7.5 15.5-23 40-23.5 61 0 5 10.5-3 23.5-18.5 1-1 1.5-2 2-2.5 2-9.5 5.5-21 11-36 2-5 2.5-6.5 5-13.5l2-5c-1 .5-1.5.5-2 .5-8.5 1.5-14 2.5-14 2 2-4.5 1.5-8.5 6.5-9.5 2.5-.5 6.5-1.5 11-2.5.5 0 1.5 0 2.5-.5 3-7 6-14 9-22 1-3 27.5-10 23.5-2.5-3 6-6.5 12-10 18 4.5-1 8-2 8-2 25.5-7 54.5-16.5 61.5-20 1-.5 1.5-1 .5 1z"/>
	</g><!-- End Drop Shadow -->
</svg>
