<svg xmlns="http://www.w3.org/2000/svg" viewBox="-41 164.9 512 512" enable-background="new -41 164.9 512 512"><style type="text/css">.st0{fill:#A41D21;} .st1{fill:#FFFFFF;}</style><path class="st0" d="M215.2 216.4l89.7 51.9 89.9 51.8v207.4l-89.9 51.9-89.7 51.8-89.9-51.8-89.8-51.9v-207.4l89.8-51.8 89.9-51.9z"/><path class="st1" d="M407.5 309.9v222l-192.3 111.1-192.5-111.1v-222l192.4-111.1 192.4 111.1zm-192.3-81.7l-166.9 96.3v192.8l166.8 96.3 166.9-96.3v-192.8l-166.8-96.3zm.6 101.7c35.9 0 71.1 15.9 88.5 48.4 17.3 32.3 14.3 75.1-4.1 106.2-8.8 14.8-21.4 27.2-36.5 35.6-15.4 8.5-32.7 12.1-50.1 12.1-17.4-.1-35.1-3.4-50.3-12.2-14.7-8.5-27.1-21.2-35.1-36.2-9.1-17-13.9-36.9-13.2-56.2.7-19.1 7.4-38.4 17.8-54.4 2.5-3.8 5.2-7.5 8.2-11 2.2 7.5 5.9 13.1 13.4 15.8-22.6 51.4-2.9 144.5 66 143.8 15.2-.2 31-6.2 41.6-17.3 10-10.3 16.6-23.6 19.7-37.5 3.7-16.3 4.2-33.7 2.4-50.2-1.7-15.9-6.3-31.4-14.8-45.1-9.2-14.8-23.4-26.5-40.5-30.6-16.7-4.1-35.4-1.2-50.1 7.7v-.8c-2.2-3.1-5.2-6.1-8.7-7.9 14-7.1 29.9-10.2 45.8-10.2zm-67.1 36.9c-5.9-7.3-1.5-18.1 6.6-21.7 5.5-2.3 12.2-1.4 16.3 3 5.6 6.1 5.4 15.7-.3 21.5-6.7 7-17.3 4.6-22.6-2.8zm35.3 5.5c4.8 1 7.7 3.9 9.8 8 2.4 4.9 4.9 9.7 7.4 14.5 7.8 15.1 15.7 30.2 23.7 45.2-1-6.2-2.2-12.4-3.4-18.6-.9-4.3-2.9-9.4-.3-13.4 2.4-4 6.9-7 11.7-6.4 5.7.8 9.1 4.1 10.9 9.4 0-.1-.1-.8.1-.8-.3.2 1.3 11.1 1.3 11.8.7 6.9 1.2 13.7 1.8 20.6 1 12.7 2.1 25.3 2.3 38 0 2.3.3 4.9-.3 7.2-.8 2.8-3.8 4.9-6.5 5.6-3.7 1-7.3-1.2-10.5-2.9-12.5-6.5-24.4-14.2-36.2-21.9-5.9-3.8-11.8-7.7-17.5-11.8-3.9-2.8-7.8-5.5-9.1-10.4 0-4.3.9-8.3 4.3-11.2 3.3-2.8 9.1-3.4 12.8-1.2 2.9 1.6 5.4 4.2 8 6.2 4.4 3.5 8.9 6.8 13.4 10.1-11.8-16.6-23.5-33.2-34.8-50.2-2.5-3.8-6.2-8.3-6.3-13.1-.7-10 7.9-16.3 17.4-14.7 1.9.4-1.3-.3 0 0z"/></svg>