<svg xmlns="http://www.w3.org/2000/svg" width="1440" height="1440" viewBox="0 0 1440 1440"><g fill="#c30"><path d="M690.503 703.426c-2.125-.152-3.284-1.062-3.451-2.688-.039-.388.025-1.403.194-3.026.15-1.621.256-2.958.294-4.023l.733-11.392c.136-2.311.202-4.201.219-5.68.016-1.478-.047-2.814-.17-4.016-.392-3.787-1.806-6.646-4.226-8.582-2.42-1.938-5.583-2.712-9.479-2.312-2.606.269-5.143 1.033-7.645 2.299-2.485 1.245-5.235 3.172-8.223 5.738-.531.447-1.25 1.08-2.156 1.902-2.03 1.852-3.352 2.81-3.962 2.871-.798.045-1.414-.861-1.869-2.758-.249-.964-.477-1.725-.684-2.281-.625-1.896-1.395-3.199-2.303-3.871s-2.148-.917-3.736-.755c-2.531.262-5.686 1.183-9.446 2.745-3.756 1.581-7.114 3.421-10.105 5.559-2.142 1.526-3.688 3.012-4.643 4.436-.937 1.422-1.348 2.865-1.198 4.307.118 1.164.536 1.941 1.229 2.338.695.396 1.995.505 3.861.312 1.292-.132 2.124-.031 2.494.285.37.334.598 1.096.719 2.278.167 1.626.245 3.65.192 6.065-.051 2.413-.177 5.169-.396 8.312l-.825 9.584c-.051.604-.131 1.452-.238 2.603-.396 3.942-.523 6.514-.401 7.695.232 2.272 1.085 3.829 2.531 4.632 1.445.821 3.785 1.066 6.982.737 5.82-.599 10.052-1.911 12.736-3.961 2.665-2.048 4.099-5.163 4.286-9.327.091-1.84.151-4.517.159-8.063.014-7.318.479-12.576 1.443-15.737.616-2.173 1.499-3.926 2.65-5.276 1.149-1.333 2.437-2.081 3.84-2.225.832-.086 1.495.183 2.007.802.494.62.816 1.577.945 2.835.048.462.086.831.096 1.11.01.277-.003.521-.016.747l-.42 9.174c-.084 2.453-.287 5.744-.623 9.904-.338 4.159-.451 6.878-.316 8.189.326 3.177 1.302 5.393 2.904 6.646 1.604 1.255 4.023 1.715 7.239 1.384 5.614-.577 10.828-2.72 15.58-6.438s6.97-7.214 6.632-10.501c-.155-1.552-1.288-2.404-3.434-2.577zM498.924 731.475c-.271-3.415.354-10.796-6.252-9.381-3.822.818-13.642 9.629-16.568 5.848-.869-1.308-1.989-7.362-1.861-9.883 11.271-6.171 23.326-15.636 26.717-19.178 4.843-5.057 8.416-15.347-.832-15.807-4.712-.234-20.614 14.59-47.61 18.27-23.519 3.204-51.888 12.389-47.747 41.077 1.715 11.897 12.466 19.761 25.627 16.927 5.922-1.274 9.688-8.451 8.223-14.708-1.257-5.365-7.656-8.397-13.078-6.867-3.77 1.063-8.535.242-9.358-2.865-3.244-12.257 25.383-12.882 32.277-11.232 3.229 10.314 14.818 60.642-.722 64.317-3.462.818-6.625-1.542-6.896-5.188-.281-3.839-2.676-7.222-7.478-7.504-8.521-.5-14.428 7.686-11.95 15.684 1.917 6.191 9.991 13.593 26.621 8.777 22.177-6.419 34.495-34.562 31.454-54.271-.445-2.884.312-4.56 2.158-5.104 4.807-1.42 5.28 4.383 5.957 7.098.908 3.656 3.845 7.31 10.173 5.388 3.926-1.191 5.5-4.077 4.631-7.081-1.458-5.03-3.03-8.591-3.486-14.317zM986.758 710.582c-.613 4.004 1.217 4.31 3.923 1.786 2.979-2.78 5.849-10.06 6.046-15.763.148-4.313-2.709-8.106-7.346-6.231-2.908 1.176-3.993 4.028-2.788 6.869 2.15 5.076 1.117 7.133.165 13.339zM561.012 723.634c-1.272-.933-2.594-1.191-3.962-.778-.659.198-2.584 1.851-5.775 4.953-3.191 3.104-6.291 5.11-9.312 6.026-1.812.551-3.567.461-5.276-.244-1.706-.704-2.793-1.791-3.235-3.248-.178-.587 1.023-1.357 3.6-2.274 2.589-.939 4.837-1.974 6.771-3.082 5.886-3.375 10.187-7.881 12.905-13.5 2.739-5.624 3.295-11.091 1.684-16.404-1.262-4.159-3.741-6.958-7.435-8.382-3.69-1.422-8.234-1.306-13.657.34-5.028 1.525-9.62 3.79-13.791 6.803-4.173 3.013-7.653 6.571-10.469 10.666-3.695 5.41-6.153 11.066-7.372 16.966-1.199 5.896-1.028 11.396.51 16.458 2.067 6.825 5.833 11.43 11.278 13.774 5.447 2.346 12.224 2.289 20.312-.163 7.57-2.296 14.03-6.021 19.405-11.202 5.363-5.16 7.569-9.343 6.601-12.54-.558-1.833-1.486-3.222-2.782-4.169zm-30.391-5.822c-.357-.281-.646-.777-.854-1.471-.771-2.542-.656-5.815.363-9.812.996-4.012 2.242-6.231 3.736-6.687.533-.162 1.016-.037 1.481.348.446.39.808.997 1.051 1.797.964 3.183.926 6.513-.135 9.997-1.044 3.462-2.525 5.481-4.445 6.063-.445.136-.835.062-1.197-.235zM610.321 673.237c-2.823-2.271-5.945-3.005-9.366-2.225-2.028.463-3.685 1.472-4.98 3.044-1.304 1.557-2.263 3.698-2.921 6.402-.081.475-.188 1.091-.353 1.871-.282 1.854-.74 2.854-1.373 3-.47.105-1.058-.54-1.794-1.937-.602-1.214-1.141-2.155-1.59-2.875-1.453-2.275-2.682-3.73-3.669-4.381-.985-.649-2.097-.837-3.327-.556-1.737.398-3.858 1.456-6.403 3.161-2.521 1.719-5.189 3.89-7.955 6.541-1.984 1.9-3.349 3.604-4.058 5.081-.727 1.499-.928 2.954-.596 4.402.242 1.067.766 1.848 1.578 2.326.797.483 1.758.607 2.881.354.291-.066.646-.188 1.079-.362.419-.172.736-.282.954-.332.853-.194 1.449-.16 1.828.078.381.256.663.819.866 1.708 1.092 4.779 1.635 11.322 1.637 19.667.016 8.321.311 13.778.888 16.312.439 1.921 1.287 3.041 2.563 3.381 1.26.34 3.648.115 7.161-.688 4.38-1 7.991-2.378 10.851-4.117 2.856-1.759 4.476-3.517 4.854-5.279.176-.898-.056-4.159-.686-9.827-.629-5.666-1.091-10.608-1.433-14.854l-.5-7.771-.021-.091c-.084-1.373.11-2.104.617-2.219.562-.129 1.118.394 1.693 1.574.323.746.623 1.307.885 1.703.933 1.236 2.139 2.103 3.683 2.604 1.525.512 3.159.575 4.882.182 3.077-.702 5.374-2.58 6.906-5.615 1.516-3.052 1.822-6.533.926-10.462-.98-4.288-2.887-7.547-5.707-9.8zM761.783 700.43c-.226-.028-.523-.04-.874-.026-1.975-.12-2.961-.776-3.001-1.966l-.008-.223s-.15-8.777 2.405-19.965c2.404-10.521 2.035-19.175-.614-19.987-.743-.527-1.812-.777-3.233-.733-2.878.097-5.913 1.012-9.146 2.771-3.231 1.76-4.913 2.652-5.062 2.656-.074.003-1.68-.855-4.823-2.592-3.141-1.737-6.309-2.544-9.5-2.439-3.101.103-6.479 1.311-10.104 3.603-3.641 2.292-7.068 5.451-10.319 9.479-3.771 4.546-6.603 9.452-8.495 14.678-1.891 5.229-2.762 10.479-2.588 15.751.196 6.015 1.667 10.647 4.396 13.922 2.746 3.272 6.437 4.823 11.079 4.674 2.636-.087 5.327-.731 8.074-1.954 2.729-1.203 5.202-2.846 7.421-4.926.579-.521 1.277-1.268 2.12-2.243 1.293-1.417 2.252-2.136 2.864-2.155.649-.023 1.109 1.004 1.403 3.112.146 1.071.305 1.922.472 2.529.371 1.661 1.115 2.882 2.201 3.645 1.103.764 2.603 1.104 4.475 1.045 2.138-.071 4.735-.676 7.782-1.816 3.049-1.122 5.826-2.566 8.295-4.321 2.272-1.561 3.985-3.18 5.156-4.852 1.154-1.672 1.715-3.289 1.664-4.848-.028-.837-.235-1.498-.604-1.988-.384-.494-.858-.776-1.436-.831zm-25.17-18.427c-.861 3.205-2.077 6.403-3.608 9.575-1.429 2.908-2.823 5.146-4.184 6.731-1.359 1.587-2.598 2.406-3.729 2.445-.647.021-1.197-.312-1.63-.986-.449-.675-.683-1.558-.718-2.635-.065-2.004.315-4.545 1.144-7.637.828-3.093 1.958-6.104 3.425-9.012 1.605-3.14 3.09-5.474 4.434-7.021s2.601-2.352 3.751-2.39c.668-.022 1.198.258 1.642.818.428.562.658 1.334.69 2.32.061 1.989-.336 4.585-1.217 7.792zM1034.99 743.82c-.635-1.409-1.461-2.749-2.465-4.042-1.009-1.294-2.09-2.486-3.215-3.554-1.144-1.078-2.201-1.976-3.203-2.719-1.957-1.452-4.125-2.756-6.513-3.888-2.393-1.132-4.882-1.998-7.465-2.604-2.584-.606-5.141-.836-7.658-.708-2.53.13-4.92.75-7.145 1.835-2.232 1.093-4.228 2.717-5.9 4.972-1.302 1.752-2.178 3.582-2.703 5.472-.521 1.874-.795 3.757-.823 5.655-.026 1.873.062 3.713.284 5.506.224 1.793.442 3.475.646 5.047.205 1.573.271 3.013.2 4.277-.07 1.25-.383 2.312-.998 3.144-.514.688-1.162 1.105-1.906 1.257-.743.151-1.5.121-2.302-.104-.781-.225-1.498-.568-2.134-1.05-.916-.696-1.501-1.48-1.77-2.332-.262-.854-.361-1.73-.287-2.619.076-.918.157-1.823.257-2.7.101-.896.065-1.725-.104-2.508s-.623-1.482-1.406-2.063c-.798-.592-1.677-.895-2.604-.938-.923-.044-1.849.139-2.771.492-.906.349-1.772.82-2.574 1.439-.785.605-1.448 1.255-1.979 1.979-1.149 1.57-1.739 3.226-1.781 4.917-.043 1.691.288 3.37 1.038 5.047.75 1.672 1.713 3.287 2.928 4.82 1.217 1.533 2.505 2.938 3.887 4.221 1.379 1.279 2.69 2.359 3.911 3.269 1.926 1.431 4.073 2.759 6.454 3.968 2.38 1.209 4.865 2.176 7.479 2.907 2.591.729 5.166 1.084 7.739 1.062 2.562-.023 4.989-.551 7.267-1.575 2.282-1.027 4.308-2.681 6.048-5.005 1.398-1.872 2.294-3.828 2.787-5.85.497-2.027.729-4.035.666-6.062-.062-2.023-.272-4.018-.602-5.96-.331-1.944-.65-3.78-.929-5.521-.275-1.729-.375-3.334-.303-4.766.073-1.445.453-2.699 1.197-3.702.604-.812 1.406-1.231 2.312-1.315.923-.088 1.808.15 2.62.756.705.521 1.146 1.17 1.354 1.876.21.723.3 1.488.268 2.289-.034.825-.062 1.627-.088 2.438-.022.827.073 1.606.306 2.339.231.731.709 1.399 1.444 1.947.828.615 1.724.911 2.658.93.952.022 1.889-.147 2.834-.542.92-.384 1.783-.885 2.591-1.524.789-.631 1.458-1.303 1.986-2.026.921-1.26 1.373-2.599 1.389-3.996.019-1.4-.291-2.788-.922-4.188zM903.895 719.418c-.253-.054-.657-.104-1.22-.148-.557-.062-.964-.109-1.219-.166-.672-.146-1.093-.479-1.274-1.054-.186-.552-.134-1.491.146-2.797.111-.527.218-.923.294-1.192.077-.268.171-.53.302-.789l3.167-9.52c3.695-10.297 15.283-35.049 14.55-43.283-.005-.837-.193-1.515-.575-2.038-.079-.116-.162-.217-.255-.3-.729-.738-2.134-1.338-4.229-1.788-2.941-.632-6.222-1.016-9.841-1.145-3.603-.132-6.831.045-9.688.52-3.37.562-5.783 1.33-7.201 2.311-1.413.978-2.312 2.37-2.702 4.186-.234 1.089-.066 2.076.493 2.917.561.845 1.356 1.375 2.373 1.595.474.102.933.181 1.373.238l.737.101c.908.195 1.481.452 1.698.766.205.292.238.831.081 1.574-.466 2.16-.78 2.486-1.669 4.104-.895 1.628-1.614 2.389-2.179 2.268-.255-.055-1.323-.815-3.213-2.285-1.892-1.451-3.799-2.395-5.723-2.807-3.542-.762-7.228-.585-11.07.508-3.83 1.114-7.556 3.067-11.167 5.901-4.375 3.393-8.041 7.542-11.022 12.411-2.966 4.872-5.079 10.193-6.318 15.966-1.296 6.029-1.136 10.945.474 14.769 1.61 3.822 4.507 6.174 8.684 7.068 2.634.565 5.424.577 8.354.013 2.933-.551 6.152-1.66 9.626-3.327.872-.439 2.021-1.104 3.488-2.006 1.445-.887 2.441-1.279 2.967-1.167.509.108.702 1.157.618 3.135-.062 1.185-.096 2.127-.068 2.893.027 2.077.412 3.642 1.1 4.699.701 1.062 1.825 1.761 3.35 2.088 1.944.419 4.581.435 7.897.026 3.312-.393 6.879-1.162 10.733-2.311 3.25-.975 5.585-2.03 6.993-3.189 1.426-1.156 2.349-2.705 2.758-4.611.244-1.146.216-2.062-.062-2.807-.3-.733-.815-1.167-1.561-1.327zm-19.416-31.624c-.474 2.198-1.492 4.828-3.027 7.897-1.55 3.066-3.362 5.928-5.418 8.6-2.049 2.638-3.84 4.512-5.385 5.604-1.528 1.099-2.909 1.522-4.163 1.251-.636-.135-1.104-.52-1.389-1.15-.297-.652-.348-1.384-.163-2.238.357-1.67 1.246-3.949 2.65-6.856 1.403-2.91 3.006-5.682 4.841-8.287 2.276-3.349 4.218-5.666 5.832-6.99 1.632-1.323 3.13-1.835 4.511-1.539.816.177 1.357.577 1.646 1.189.266.607.294 1.449.065 2.519zM977.91 724.802c2-6.922 1.31-13.152-2.108-18.646-3.419-5.494-8.989-9.366-16.729-11.606-10.866-3.141-21.05-2.219-30.541 2.788-9.486 4.991-15.689 12.535-18.616 22.65-2.011 6.959-1.189 13.209 2.485 18.758 3.66 5.521 9.662 9.504 17.994 11.913 10.543 3.049 20.373 2.082 29.441-2.935 9.08-4.989 15.102-12.644 18.074-22.922zm-24.11-12.636c-.728 2.515-2.004 5.724-3.818 9.663-1.811 3.924-3.771 7.629-5.858 11.104-1.445 2.388-2.75 3.962-3.907 4.747-1.147.771-2.422.963-3.813.562-1.105-.32-1.853-1.02-2.195-2.104-.342-1.085-.286-2.423.179-4.025.384-1.321 1.047-3.083 1.973-5.271.938-2.182 2.084-4.596 3.402-7.229 1.164-2.486 2.214-4.579 3.1-6.237.912-1.671 1.65-2.964 2.268-3.889 1.165-1.691 2.327-2.903 3.503-3.627 1.176-.723 2.333-.909 3.493-.575 1.14.33 1.857 1.059 2.129 2.182.275 1.101.127 2.682-.456 4.699zM825.71 664.2c-2.585-.28-5.206-.061-7.896.653-2.671.695-5.739 1.998-9.169 3.873-.608.325-1.438.791-2.487 1.402-2.354 1.378-3.835 2.037-4.44 1.973-.783-.122-1.193-1.13-1.246-3.063-.043-.987-.105-1.773-.19-2.356-.214-1.973-.694-3.396-1.438-4.235-.744-.841-1.896-1.334-3.475-1.504-2.512-.271-5.764-.026-9.74.716-3.976.76-7.616 1.854-10.962 3.312-2.394 1.043-4.203 2.164-5.424 3.352-1.203 1.188-1.901 2.504-2.056 3.935-.123 1.153.118 1.998.711 2.525.595.524 1.834.899 3.686 1.099 1.284.139 2.071.407 2.363.792.291.402.354 1.188.229 2.361-.172 1.613-.515 3.599-1.062 5.932-.549 2.333-1.24 4.986-2.103 7.991l-2.778 9.139c-.175.575-.428 1.384-.769 2.477-1.199 3.749-1.854 6.221-1.979 7.394-.243 2.255.263 3.94 1.5 5.021 1.234 1.097 3.459 1.817 6.631 2.158 5.775.618 10.158.219 13.188-1.219 3.013-1.438 5.047-4.169 6.089-8.175.469-1.768 1.08-4.354 1.821-7.796 1.523-7.106 3.062-12.117 4.65-14.987 1.048-1.981 2.267-3.504 3.662-4.578 1.393-1.055 2.795-1.517 4.188-1.366.827.088 1.414.484 1.783 1.191.352.706.466 1.702.333 2.948-.048.458-.088.826-.139 1.098-.048.273-.108.509-.168.726l-2.303 8.821c-.588 2.365-1.464 5.519-2.65 9.489s-1.857 6.588-1.995 7.889c-.339 3.154.147 5.507 1.448 7.058 1.298 1.547 3.554 2.494 6.74 2.836 5.575.6 11.079-.404 16.462-3.034 5.386-2.632 8.259-5.568 8.609-8.833.164-1.539-.76-2.604-2.809-3.213-2.032-.589-2.971-1.71-2.795-3.323.039-.383.312-1.356.811-2.898.479-1.543.859-2.818 1.117-3.85l3.062-10.91c.61-2.216 1.066-4.039 1.388-5.47.318-1.432.534-2.745.664-3.935.402-3.76-.383-6.829-2.33-9.209-1.954-2.386-4.862-3.792-8.732-4.207z"/></g></svg>