<svg width="288" height="288" viewBox="0 0 288 288" xmlns="http://www.w3.org/2000/svg"><style type="text/css">.screen { mix-blend-mode: screen; }.bg{fill:#222;}.translateZ{transform:translateZ(0);}</style><path class="bg" d="M0 0v288h288v-288h-288z"/><g transform="translate(144 144)" class="screen"><path class="translateZ" d="M-187.2-40.8v201c0,14.9,12.1,27,27,27H112l0,0c41.5,0,75.1-33.6,75.1-75.1V-95.8c0-50.5-40.9-91.4-91.4-91.4
	H-40.8C-121.6-187.2-187.2-121.6-187.2-40.8z M-180.7,171.1c0-411.7,361.4-445.9,361.4-195.5C180.7,45.5-180.7,224.9-180.7,171.1z"/><animate dur="9s" repeatCount="indefinite" attributeName="fill" values="darkolivegreen; gold; darkgreen; darkolivegreen;"/><animateTransform type="rotate" to="0 0 0" additive="sum" attributeName="transform" from="360 0 0" dur="12s" attributeType="xml" repeatCount="indefinite"/></g><g transform="translate(144 144)" class="screen"><path class="translateZ" d="M-187.2,27.5v64.4c0,52.6,42.7,95.3,95.3,95.3H112l0,0c41.5,0,75.1-33.6,75.1-75.1V-27.5
		c0-88.2-71.5-159.7-159.7-159.7l0,0C-91.1-187.2-187.2-91.1-187.2,27.5z M-176.8,123c0-47.6,352.3-614.4,352.3,0
		C175.5,182-176.8,183.4-176.8,123z"/><animate dur="128s" repeatCount="indefinite" attributeName="fill" values="darkslategrey; goldenrod; darkslateblue; darkred; seagreen; sienna; slategrey; darkslategrey;"/><animateTransform type="rotate" to="360 0 0" additive="sum" attributeName="transform" from="0 0 0" dur="24s" attributeType="xml" repeatCount="indefinite"/></g></svg>